<svg width="1024" height="1024" viewBox="0 0 1024 1024" fill="none" xmlns="http://www.w3.org/2000/svg">
  <defs>
    <linearGradient id="g" x1="230" y1="150" x2="780" y2="850" gradientUnits="userSpaceOnUse">
      <stop stop-color="#4ADE80"/>
      <stop offset="1" stop-color="#22C55E"/>
    </linearGradient>
    <filter id="glow" x="-20%" y="-20%" width="140%" height="140%">
      <feGaussianBlur stdDeviation="18" result="b"/>
      <feColorMatrix in="b" type="matrix" values="0 0 0 0 0.290 0 0 0 0 0.871 0 0 0 0 0.502 0 0 0 0.32 0"/>
      <feBlend in="SourceGraphic"/>
    </filter>
  </defs>
  <g filter="url(#glow)">
    <path d="M234 243C243 220 265 205 290 205H415L345 431L641 205H805C833 205 846 240 824 257L529 487L811 818H649L430 559L360 787C353 812 330 829 304 829H176L252 588L105 704L78 654L279 497L234 243Z" fill="url(#g)"/>
    <path d="M102 812L291 681L271 742L126 842L102 812Z" fill="#4ADE80" opacity="0.85"/>
    <path d="M71 735L255 608L239 661L95 764L71 735Z" fill="#4ADE80" opacity="0.7"/>
    <path d="M152 890L323 772L309 819L176 916L152 890Z" fill="#4ADE80" opacity="0.55"/>
  </g>
  <g transform="translate(695 645) scale(1.08)">
    <circle cx="88" cy="88" r="76" fill="#F8FAFC"/>
    <path d="M88 18L119 44L108 79H68L57 44L88 18Z" fill="#0F172A"/>
    <path d="M23 74L57 62L85 86L70 123L34 122L23 74Z" fill="#0F172A"/>
    <path d="M153 74L119 62L91 86L106 123L142 122L153 74Z" fill="#0F172A"/>
    <path d="M45 151L70 123H106L131 151C118 160 103 165 88 165C73 165 58 160 45 151Z" fill="#0F172A"/>
    <circle cx="88" cy="88" r="18" fill="#0F172A"/>
    <path d="M28 48C14 70 11 97 20 121" stroke="#0F172A" stroke-width="10" stroke-linecap="round" opacity="0.22"/>
    <path d="M148 48C162 70 165 97 156 121" stroke="#0F172A" stroke-width="10" stroke-linecap="round" opacity="0.22"/>
  </g>
</svg>
